<svg width="554" height="560" viewBox="0 0 554 560" fill="none" xmlns="http://www.w3.org/2000/svg">
<path d="M428.207 372.727C447.923 399.22 468.255 426.33 488.587 453.439C447.923 501.497 397.4 532.303 336.404 545.242C268.63 559.413 204.553 548.939 142.325 514.436C197.776 473.155 251.995 432.491 306.83 391.827C319.153 403.533 330.859 415.239 342.565 426.33C355.504 438.652 350.575 439.268 367.21 430.026C390.007 417.088 409.107 399.22 423.894 377.656C424.51 376.424 425.742 375.191 426.358 373.959C425.742 373.959 426.358 373.959 428.207 372.727ZM186.07 426.946C170.667 438.652 156.496 449.126 142.325 460.217C131.851 468.226 121.377 475.62 110.902 483.629C106.59 487.326 103.509 487.326 98.58 483.013C51.7545 441.117 22.1805 389.362 11.0902 327.75C-3.8147e-06 265.521 9.85799 206.373 39.432 150.306C40.0481 149.074 41.2804 147.225 41.8965 145.993C41.8965 145.377 42.5126 145.377 43.7449 144.761C84.4091 198.363 125.689 251.966 166.354 305.569C165.121 307.418 164.505 308.65 163.273 309.882C150.951 322.821 138.628 335.759 125.689 348.082C121.993 351.779 121.377 354.859 123.841 359.172C136.78 383.817 154.647 404.149 176.828 420.785C179.908 422.633 182.373 424.481 186.07 426.946ZM415.884 44.3323C396.168 58.5032 376.452 72.674 356.736 86.2288C322.849 110.258 288.962 134.903 255.692 158.932C251.379 162.012 248.298 162.628 244.602 158.315C233.511 146.609 221.805 136.135 210.715 124.429C207.634 121.348 204.553 120.732 200.241 122.58C173.747 136.135 152.799 155.235 135.547 179.264C134.315 180.496 133.083 182.344 131.851 184.193C121.993 171.254 112.751 159.548 103.509 147.225C93.651 134.287 84.4091 121.348 75.1672 109.025C72.0866 104.713 71.4705 101.632 75.7833 97.319C123.225 44.9484 181.757 14.1422 251.995 6.74869C307.446 0.587442 360.433 11.6777 409.723 38.1711C411.571 39.4033 413.42 40.0194 415.268 41.2517C415.268 43.1001 415.268 43.7162 415.884 44.3323ZM516.313 414.007C503.374 397.372 491.668 381.969 479.961 366.566C452.852 330.83 425.742 294.479 398.017 258.744C394.32 253.815 394.32 250.734 398.633 246.421C410.339 234.715 421.429 223.008 433.136 211.302C436.216 208.221 437.449 205.141 434.984 200.828C421.429 174.951 402.946 153.386 378.917 136.135C377.068 134.903 375.22 133.054 372.755 131.822C374.604 129.974 376.452 128.741 377.684 127.509C401.097 109.642 424.51 92.39 447.923 74.5224C451.619 71.4418 454.7 70.2095 459.013 74.5224C517.545 127.509 548.967 193.435 552.048 272.915C553.28 319.124 542.806 362.869 521.858 404.149C520.009 406.614 518.161 409.694 516.313 414.007Z" fill="url(#paint0_linear_401_4)"/>
<defs>
<linearGradient id="paint0_linear_401_4" x1="138.5" y1="61" x2="434" y2="500" gradientUnits="userSpaceOnUse">
<stop stop-color="#3FE3ED"/>
<stop offset="1" stop-color="#FF1BF6"/>
</linearGradient>
</defs>
</svg>
